<svg width="250" height="140" viewBox="0 0 250 140" xmlns="http://www.w3.org/2000/svg">
<path d="M59.0723 28.392C58.4527 27.5464 57.5884 26.5589 56.6402 25.6098C55.692 24.6607 54.7036 23.7973 53.858 23.1777C52.4188 22.1223 51.7214 22 51.3214 22H37.4821C36.2518 22 35.25 23.0009 35.25 24.2321V48.3393C35.25 49.5696 36.2518 50.5714 37.4821 50.5714H58.0179C59.2482 50.5714 60.25 49.5696 60.25 48.3393V30.9286C60.25 30.5286 60.1277 29.8304 59.0723 28.392ZM55.3777 26.8723C56.2339 27.7286 56.9063 28.5018 57.4027 29.1429H53.1071V24.8473C53.7482 25.3438 54.5214 26.0161 55.3777 26.8723ZM58.4643 48.3393C58.4643 48.5813 58.2598 48.7857 58.0179 48.7857H37.4821C37.2402 48.7857 37.0357 48.5813 37.0357 48.3393V24.2321C37.0357 23.9902 37.2402 23.7857 37.4821 23.7857C37.4821 23.7857 51.3205 23.7857 51.3214 23.7857V30.0357C51.3214 30.5286 51.7214 30.9286 52.2143 30.9286H58.4643V48.3393Z"/>
<path d="M59.0723 28.392C58.4527 27.5464 57.5884 26.5589 56.6402 25.6098C55.692 24.6607 54.7036 23.7973 53.858 23.1777C52.4188 22.1223 51.7214 22 51.3214 22H37.4821C36.2518 22 35.25 23.0009 35.25 24.2321V48.3393C35.25 49.5696 36.2518 50.5714 37.4821 50.5714H58.0179C59.2482 50.5714 60.25 49.5696 60.25 48.3393V30.9286C60.25 30.5286 60.1277 29.8304 59.0723 28.392ZM55.3777 26.8723C56.2339 27.7286 56.9063 28.5018 57.4027 29.1429H53.1071V24.8473C53.7482 25.3438 54.5214 26.0161 55.3777 26.8723ZM58.4643 48.3393C58.4643 48.5813 58.2598 48.7857 58.0179 48.7857H37.4821C37.2402 48.7857 37.0357 48.5813 37.0357 48.3393V24.2321C37.0357 23.9902 37.2402 23.7857 37.4821 23.7857C37.4821 23.7857 51.3205 23.7857 51.3214 23.7857V30.0357C51.3214 30.5286 51.7214 30.9286 52.2143 30.9286H58.4643V48.3393Z"/>
<path d="M41.6735 36.1305C41.6491 35.8849 41.5446 35.6942 41.36 35.5582C41.1753 35.4223 40.9247 35.3543 40.6082 35.3543C40.3931 35.3543 40.2114 35.3847 40.0633 35.4456C39.9152 35.5045 39.8015 35.5866 39.7224 35.6922C39.6453 35.7977 39.6067 35.9174 39.6067 36.0513C39.6027 36.1629 39.626 36.2603 39.6767 36.3435C39.7295 36.4267 39.8015 36.4988 39.8929 36.5597C39.9842 36.6185 40.0897 36.6703 40.2094 36.7149C40.3291 36.7575 40.457 36.794 40.5929 36.8245L41.153 36.9584C41.4249 37.0193 41.6745 37.1004 41.9018 37.2019C42.1291 37.3034 42.3259 37.4282 42.4923 37.5763C42.6587 37.7244 42.7875 37.8989 42.8789 38.0998C42.9722 38.3007 43.0199 38.531 43.0219 38.7908C43.0199 39.1723 42.9225 39.503 42.7297 39.7831C42.539 40.0611 42.263 40.2772 41.9018 40.4314C41.5426 40.5836 41.1094 40.6597 40.6021 40.6597C40.0988 40.6597 39.6605 40.5826 39.2871 40.4284C38.9158 40.2741 38.6256 40.0459 38.4166 39.7435C38.2096 39.4391 38.1011 39.0627 38.0909 38.6142H39.3663C39.3805 38.8233 39.4403 38.9978 39.5459 39.1378C39.6534 39.2758 39.7965 39.3803 39.975 39.4513C40.1556 39.5203 40.3596 39.5548 40.5869 39.5548C40.8101 39.5548 41.0039 39.5223 41.1682 39.4574C41.3346 39.3925 41.4635 39.3022 41.5548 39.1865C41.6461 39.0708 41.6918 38.9379 41.6918 38.7877C41.6918 38.6477 41.6502 38.53 41.567 38.4347C41.4858 38.3393 41.3661 38.2581 41.2078 38.1912C41.0515 38.1242 40.8598 38.0633 40.6325 38.0085L39.9537 37.8381C39.4282 37.7102 39.0132 37.5103 38.7088 37.2384C38.4044 36.9665 38.2532 36.6002 38.2553 36.1396C38.2532 35.7622 38.3537 35.4324 38.5566 35.1504C38.7616 34.8683 39.0426 34.6481 39.3998 34.4899C39.7569 34.3316 40.1627 34.2524 40.6173 34.2524C41.08 34.2524 41.4838 34.3316 41.8287 34.4899C42.1757 34.6481 42.4456 34.8683 42.6384 35.1504C42.8312 35.4324 42.9306 35.7591 42.9367 36.1305H41.6735Z"/>
<path d="M45.0346 34.3377L46.5413 39.0739H46.5992L48.1089 34.3377H49.57L47.421 40.5714H45.7226L43.5706 34.3377H45.0346Z"/>
<path d="M54.1022 36.3527C54.0596 36.2045 53.9997 36.0737 53.9226 35.96C53.8455 35.8444 53.7512 35.747 53.6396 35.6678C53.53 35.5866 53.4042 35.5248 53.2621 35.4821C53.1221 35.4395 52.9669 35.4182 52.7964 35.4182C52.4778 35.4182 52.1978 35.4974 51.9563 35.6556C51.7169 35.8139 51.5302 36.0442 51.3963 36.3466C51.2623 36.6469 51.1954 37.0142 51.1954 37.4485C51.1954 37.8827 51.2613 38.252 51.3932 38.5564C51.5251 38.8608 51.7118 39.0931 51.9533 39.2534C52.1948 39.4117 52.4799 39.4909 52.8086 39.4909C53.1069 39.4909 53.3616 39.4381 53.5726 39.3326C53.7857 39.225 53.948 39.0739 54.0596 38.8791C54.1732 38.6843 54.2301 38.4539 54.2301 38.1881L54.4979 38.2277H52.8908V37.2354H55.4993V38.0207C55.4993 38.5686 55.3837 39.0394 55.1523 39.433C54.921 39.8247 54.6024 40.127 54.1966 40.3401C53.7907 40.5511 53.326 40.6567 52.8025 40.6567C52.2181 40.6567 51.7047 40.5278 51.2623 40.2701C50.82 40.0103 50.475 39.642 50.2274 39.1652C49.9819 38.6863 49.8591 38.1181 49.8591 37.4606C49.8591 36.9554 49.9322 36.5049 50.0783 36.1092C50.2264 35.7114 50.4334 35.3746 50.6992 35.0986C50.965 34.8226 51.2745 34.6126 51.6276 34.4685C51.9807 34.3245 52.3632 34.2524 52.7751 34.2524C53.1282 34.2524 53.4569 34.3042 53.7613 34.4077C54.0657 34.5091 54.3356 34.6532 54.571 34.8399C54.8084 35.0266 55.0022 35.2488 55.1523 35.5065C55.3025 35.7622 55.3989 36.0442 55.4415 36.3527H54.1022Z"/>
<path d="M58.8223 62.392C58.2027 61.5464 57.3384 60.5589 56.3902 59.6098C55.442 58.6607 54.4536 57.7973 53.608 57.1777C52.1688 56.1223 51.4714 56 51.0714 56H37.2321C36.0018 56 35 57.0009 35 58.2321V82.3393C35 83.5696 36.0018 84.5714 37.2321 84.5714H57.7679C58.9982 84.5714 60 83.5696 60 82.3393V64.9286C60 64.5286 59.8777 63.8304 58.8223 62.392ZM55.1277 60.8723C55.9839 61.7286 56.6563 62.5018 57.1527 63.1429H52.8571V58.8473C53.4982 59.3438 54.2714 60.0161 55.1277 60.8723ZM58.2143 82.3393C58.2143 82.5813 58.0098 82.7857 57.7679 82.7857H37.2321C36.9902 82.7857 36.7857 82.5813 36.7857 82.3393V58.2321C36.7857 57.9902 36.9902 57.7857 37.2321 57.7857C37.2321 57.7857 51.0705 57.7857 51.0714 57.7857V64.0357C51.0714 64.5286 51.4714 64.9286 51.9643 64.9286H58.2143V82.3393Z"/>
<path d="M58.8223 62.392C58.2027 61.5464 57.3384 60.5589 56.3902 59.6098C55.442 58.6607 54.4536 57.7973 53.608 57.1777C52.1688 56.1223 51.4714 56 51.0714 56H37.2321C36.0018 56 35 57.0009 35 58.2321V82.3393C35 83.5696 36.0018 84.5714 37.2321 84.5714H57.7679C58.9982 84.5714 60 83.5696 60 82.3393V64.9286C60 64.5286 59.8777 63.8304 58.8223 62.392ZM55.1277 60.8723C55.9839 61.7286 56.6563 62.5018 57.1527 63.1429H52.8571V58.8473C53.4982 59.3438 54.2714 60.0161 55.1277 60.8723ZM58.2143 82.3393C58.2143 82.5813 58.0098 82.7857 57.7679 82.7857H37.2321C36.9902 82.7857 36.7857 82.5813 36.7857 82.3393V58.2321C36.7857 57.9902 36.9902 57.7857 37.2321 57.7857C37.2321 57.7857 51.0705 57.7857 51.0714 57.7857V64.0357C51.0714 64.5286 51.4714 64.9286 51.9643 64.9286H58.2143V82.3393Z"/>
<path d="M41.4235 70.1305C41.3991 69.8849 41.2946 69.6942 41.11 69.5582C40.9253 69.4223 40.6747 69.3543 40.3582 69.3543C40.1431 69.3543 39.9614 69.3847 39.8133 69.4456C39.6652 69.5045 39.5515 69.5866 39.4724 69.6922C39.3953 69.7977 39.3567 69.9174 39.3567 70.0513C39.3527 70.1629 39.376 70.2603 39.4267 70.3435C39.4795 70.4267 39.5515 70.4988 39.6429 70.5597C39.7342 70.6185 39.8397 70.6703 39.9594 70.7149C40.0791 70.7575 40.207 70.794 40.3429 70.8245L40.903 70.9584C41.1749 71.0193 41.4245 71.1004 41.6518 71.2019C41.8791 71.3034 42.0759 71.4282 42.2423 71.5763C42.4087 71.7244 42.5375 71.8989 42.6289 72.0998C42.7222 72.3007 42.7699 72.531 42.7719 72.7908C42.7699 73.1723 42.6725 73.503 42.4797 73.7831C42.289 74.0611 42.013 74.2772 41.6518 74.4314C41.2926 74.5836 40.8594 74.6597 40.3521 74.6597C39.8488 74.6597 39.4105 74.5826 39.0371 74.4284C38.6658 74.2741 38.3756 74.0459 38.1666 73.7435C37.9596 73.4391 37.8511 73.0627 37.8409 72.6142H39.1163C39.1305 72.8233 39.1903 72.9978 39.2959 73.1378C39.4034 73.2758 39.5465 73.3803 39.725 73.4513C39.9056 73.5203 40.1096 73.5548 40.3369 73.5548C40.5601 73.5548 40.7539 73.5223 40.9182 73.4574C41.0846 73.3925 41.2135 73.3022 41.3048 73.1865C41.3961 73.0708 41.4418 72.9379 41.4418 72.7877C41.4418 72.6477 41.4002 72.53 41.317 72.4347C41.2358 72.3393 41.1161 72.2581 40.9578 72.1912C40.8015 72.1242 40.6098 72.0633 40.3825 72.0085L39.7037 71.8381C39.1782 71.7102 38.7632 71.5103 38.4588 71.2384C38.1544 70.9665 38.0032 70.6002 38.0053 70.1396C38.0032 69.7622 38.1037 69.4324 38.3066 69.1504C38.5116 68.8683 38.7926 68.6481 39.1498 68.4899C39.5069 68.3316 39.9127 68.2524 40.3673 68.2524C40.83 68.2524 41.2338 68.3316 41.5787 68.4899C41.9257 68.6481 42.1956 68.8683 42.3884 69.1504C42.5812 69.4324 42.6806 69.7591 42.6867 70.1305H41.4235Z"/>
<path d="M44.7846 68.3377L46.2913 73.0739H46.3492L47.8589 68.3377H49.32L47.171 74.5714H45.4726L43.3206 68.3377H44.7846Z"/>
<path d="M53.8522 70.3527C53.8096 70.2045 53.7497 70.0737 53.6726 69.96C53.5955 69.8444 53.5012 69.747 53.3896 69.6678C53.28 69.5866 53.1542 69.5248 53.0121 69.4821C52.8721 69.4395 52.7169 69.4182 52.5464 69.4182C52.2278 69.4182 51.9478 69.4974 51.7063 69.6556C51.4669 69.8139 51.2802 70.0442 51.1463 70.3466C51.0123 70.6469 50.9454 71.0142 50.9454 71.4485C50.9454 71.8827 51.0113 72.252 51.1432 72.5564C51.2751 72.8608 51.4618 73.0931 51.7033 73.2534C51.9448 73.4117 52.2299 73.4909 52.5586 73.4909C52.8569 73.4909 53.1116 73.4381 53.3226 73.3326C53.5357 73.225 53.698 73.0739 53.8096 72.8791C53.9232 72.6843 53.9801 72.4539 53.9801 72.1881L54.2479 72.2277H52.6408V71.2354H55.2493V72.0207C55.2493 72.5686 55.1337 73.0394 54.9023 73.433C54.671 73.8247 54.3524 74.127 53.9466 74.3401C53.5407 74.5511 53.076 74.6567 52.5525 74.6567C51.9681 74.6567 51.4547 74.5278 51.0123 74.2701C50.57 74.0103 50.225 73.642 49.9774 73.1652C49.7319 72.6863 49.6091 72.1181 49.6091 71.4606C49.6091 70.9554 49.6822 70.5049 49.8283 70.1092C49.9764 69.7114 50.1834 69.3746 50.4492 69.0986C50.715 68.8226 51.0245 68.6126 51.3776 68.4685C51.7307 68.3245 52.1132 68.2524 52.5251 68.2524C52.8782 68.2524 53.2069 68.3042 53.5113 68.4077C53.8157 68.5091 54.0856 68.6532 54.321 68.8399C54.5584 69.0266 54.7522 69.2488 54.9023 69.5065C55.0525 69.7622 55.1489 70.0442 55.1915 70.3527H53.8522Z"/>
<path d="M88.8223 45.392C88.2027 44.5464 87.3384 43.5589 86.3902 42.6098C85.442 41.6607 84.4536 40.7973 83.608 40.1777C82.1688 39.1223 81.4714 39 81.0714 39H67.2321C66.0018 39 65 40.0009 65 41.2321V65.3393C65 66.5696 66.0018 67.5714 67.2321 67.5714H87.7679C88.9982 67.5714 90 66.5696 90 65.3393V47.9286C90 47.5286 89.8777 46.8304 88.8223 45.392ZM85.1277 43.8723C85.9839 44.7286 86.6563 45.5018 87.1527 46.1429H82.8571V41.8473C83.4982 42.3438 84.2714 43.0161 85.1277 43.8723ZM88.2143 65.3393C88.2143 65.5813 88.0098 65.7857 87.7679 65.7857H67.2321C66.9902 65.7857 66.7857 65.5813 66.7857 65.3393V41.2321C66.7857 40.9902 66.9902 40.7857 67.2321 40.7857C67.2321 40.7857 81.0705 40.7857 81.0714 40.7857V47.0357C81.0714 47.5286 81.4714 47.9286 81.9643 47.9286H88.2143V65.3393Z"/>
<path d="M88.8223 45.392C88.2027 44.5464 87.3384 43.5589 86.3902 42.6098C85.442 41.6607 84.4536 40.7973 83.608 40.1777C82.1688 39.1223 81.4714 39 81.0714 39H67.2321C66.0018 39 65 40.0009 65 41.2321V65.3393C65 66.5696 66.0018 67.5714 67.2321 67.5714H87.7679C88.9982 67.5714 90 66.5696 90 65.3393V47.9286C90 47.5286 89.8777 46.8304 88.8223 45.392ZM85.1277 43.8723C85.9839 44.7286 86.6563 45.5018 87.1527 46.1429H82.8571V41.8473C83.4982 42.3438 84.2714 43.0161 85.1277 43.8723ZM88.2143 65.3393C88.2143 65.5813 88.0098 65.7857 87.7679 65.7857H67.2321C66.9902 65.7857 66.7857 65.5813 66.7857 65.3393V41.2321C66.7857 40.9902 66.9902 40.7857 67.2321 40.7857C67.2321 40.7857 81.0705 40.7857 81.0714 40.7857V47.0357C81.0714 47.5286 81.4714 47.9286 81.9643 47.9286H88.2143V65.3393Z"/>
<path d="M71.4235 53.1305C71.3991 52.8849 71.2946 52.6942 71.11 52.5582C70.9253 52.4223 70.6747 52.3543 70.3582 52.3543C70.1431 52.3543 69.9614 52.3847 69.8133 52.4456C69.6652 52.5045 69.5515 52.5866 69.4724 52.6922C69.3953 52.7977 69.3567 52.9174 69.3567 53.0513C69.3527 53.1629 69.376 53.2603 69.4267 53.3435C69.4795 53.4267 69.5515 53.4988 69.6429 53.5597C69.7342 53.6185 69.8397 53.6703 69.9594 53.7149C70.0791 53.7575 70.207 53.794 70.3429 53.8245L70.903 53.9584C71.1749 54.0193 71.4245 54.1004 71.6518 54.2019C71.8791 54.3034 72.0759 54.4282 72.2423 54.5763C72.4087 54.7244 72.5375 54.8989 72.6289 55.0998C72.7222 55.3007 72.7699 55.531 72.7719 55.7908C72.7699 56.1723 72.6725 56.503 72.4797 56.7831C72.289 57.0611 72.013 57.2772 71.6518 57.4314C71.2926 57.5836 70.8594 57.6597 70.3521 57.6597C69.8488 57.6597 69.4105 57.5826 69.0371 57.4284C68.6658 57.2741 68.3756 57.0459 68.1666 56.7435C67.9596 56.4391 67.8511 56.0627 67.8409 55.6142H69.1163C69.1305 55.8233 69.1903 55.9978 69.2959 56.1378C69.4034 56.2758 69.5465 56.3803 69.725 56.4513C69.9056 56.5203 70.1096 56.5548 70.3369 56.5548C70.5601 56.5548 70.7539 56.5223 70.9182 56.4574C71.0846 56.3925 71.2135 56.3022 71.3048 56.1865C71.3961 56.0708 71.4418 55.9379 71.4418 55.7877C71.4418 55.6477 71.4002 55.53 71.317 55.4347C71.2358 55.3393 71.1161 55.2581 70.9578 55.1912C70.8015 55.1242 70.6098 55.0633 70.3825 55.0085L69.7037 54.8381C69.1782 54.7102 68.7632 54.5103 68.4588 54.2384C68.1544 53.9665 68.0032 53.6002 68.0053 53.1396C68.0032 52.7622 68.1037 52.4324 68.3066 52.1504C68.5116 51.8683 68.7926 51.6481 69.1498 51.4899C69.5069 51.3316 69.9127 51.2524 70.3673 51.2524C70.83 51.2524 71.2338 51.3316 71.5787 51.4899C71.9257 51.6481 72.1956 51.8683 72.3884 52.1504C72.5812 52.4324 72.6806 52.7591 72.6867 53.1305H71.4235Z"/>
<path d="M74.7846 51.3377L76.2913 56.0739H76.3492L77.8589 51.3377H79.32L77.171 57.5714H75.4726L73.3206 51.3377H74.7846Z"/>
<path d="M83.8522 53.3527C83.8096 53.2045 83.7497 53.0737 83.6726 52.96C83.5955 52.8444 83.5012 52.747 83.3896 52.6678C83.28 52.5866 83.1542 52.5248 83.0121 52.4821C82.8721 52.4395 82.7169 52.4182 82.5464 52.4182C82.2278 52.4182 81.9478 52.4974 81.7063 52.6556C81.4669 52.8139 81.2802 53.0442 81.1463 53.3466C81.0123 53.6469 80.9454 54.0142 80.9454 54.4485C80.9454 54.8827 81.0113 55.252 81.1432 55.5564C81.2751 55.8608 81.4618 56.0931 81.7033 56.2534C81.9448 56.4117 82.2299 56.4909 82.5586 56.4909C82.8569 56.4909 83.1116 56.4381 83.3226 56.3326C83.5357 56.225 83.698 56.0739 83.8096 55.8791C83.9232 55.6843 83.9801 55.4539 83.9801 55.1881L84.2479 55.2277H82.6408V54.2354H85.2493V55.0207C85.2493 55.5686 85.1337 56.0394 84.9023 56.433C84.671 56.8247 84.3524 57.127 83.9466 57.3401C83.5407 57.5511 83.076 57.6567 82.5525 57.6567C81.9681 57.6567 81.4547 57.5278 81.0123 57.2701C80.57 57.0103 80.225 56.642 79.9774 56.1652C79.7319 55.6863 79.6091 55.1181 79.6091 54.4606C79.6091 53.9554 79.6822 53.5049 79.8283 53.1092C79.9764 52.7114 80.1834 52.3746 80.4492 52.0986C80.715 51.8226 81.0245 51.6126 81.3776 51.4685C81.7307 51.3245 82.1132 51.2524 82.5251 51.2524C82.8782 51.2524 83.2069 51.3042 83.5113 51.4077C83.8157 51.5091 84.0856 51.6532 84.321 51.8399C84.5584 52.0266 84.7522 52.2488 84.9023 52.5065C85.0525 52.7622 85.1489 53.0442 85.1915 53.3527H83.8522Z"/>
<path d="M88.8223 80.392C88.2027 79.5464 87.3384 78.5589 86.3902 77.6098C85.442 76.6607 84.4536 75.7973 83.608 75.1777C82.1688 74.1223 81.4714 74 81.0714 74H67.2321C66.0018 74 65 75.0009 65 76.2321V100.339C65 101.57 66.0018 102.571 67.2321 102.571H87.7679C88.9982 102.571 90 101.57 90 100.339V82.9286C90 82.5286 89.8777 81.8304 88.8223 80.392ZM85.1277 78.8723C85.9839 79.7286 86.6563 80.5018 87.1527 81.1429H82.8571V76.8473C83.4982 77.3438 84.2714 78.0161 85.1277 78.8723ZM88.2143 100.339C88.2143 100.581 88.0098 100.786 87.7679 100.786H67.2321C66.9902 100.786 66.7857 100.581 66.7857 100.339V76.2321C66.7857 75.9902 66.9902 75.7857 67.2321 75.7857C67.2321 75.7857 81.0705 75.7857 81.0714 75.7857V82.0357C81.0714 82.5286 81.4714 82.9286 81.9643 82.9286H88.2143V100.339Z"/>
<path d="M88.8223 80.392C88.2027 79.5464 87.3384 78.5589 86.3902 77.6098C85.442 76.6607 84.4536 75.7973 83.608 75.1777C82.1688 74.1223 81.4714 74 81.0714 74H67.2321C66.0018 74 65 75.0009 65 76.2321V100.339C65 101.57 66.0018 102.571 67.2321 102.571H87.7679C88.9982 102.571 90 101.57 90 100.339V82.9286C90 82.5286 89.8777 81.8304 88.8223 80.392ZM85.1277 78.8723C85.9839 79.7286 86.6563 80.5018 87.1527 81.1429H82.8571V76.8473C83.4982 77.3438 84.2714 78.0161 85.1277 78.8723ZM88.2143 100.339C88.2143 100.581 88.0098 100.786 87.7679 100.786H67.2321C66.9902 100.786 66.7857 100.581 66.7857 100.339V76.2321C66.7857 75.9902 66.9902 75.7857 67.2321 75.7857C67.2321 75.7857 81.0705 75.7857 81.0714 75.7857V82.0357C81.0714 82.5286 81.4714 82.9286 81.9643 82.9286H88.2143V100.339Z"/>
<path d="M71.4235 88.1305C71.3991 87.8849 71.2946 87.6942 71.11 87.5582C70.9253 87.4223 70.6747 87.3543 70.3582 87.3543C70.1431 87.3543 69.9614 87.3847 69.8133 87.4456C69.6652 87.5045 69.5515 87.5866 69.4724 87.6922C69.3953 87.7977 69.3567 87.9174 69.3567 88.0513C69.3527 88.1629 69.376 88.2603 69.4267 88.3435C69.4795 88.4267 69.5515 88.4988 69.6429 88.5597C69.7342 88.6185 69.8397 88.6703 69.9594 88.7149C70.0791 88.7575 70.207 88.794 70.3429 88.8245L70.903 88.9584C71.1749 89.0193 71.4245 89.1004 71.6518 89.2019C71.8791 89.3034 72.0759 89.4282 72.2423 89.5763C72.4087 89.7244 72.5375 89.8989 72.6289 90.0998C72.7222 90.3007 72.7699 90.531 72.7719 90.7908C72.7699 91.1723 72.6725 91.503 72.4797 91.7831C72.289 92.0611 72.013 92.2772 71.6518 92.4314C71.2926 92.5836 70.8594 92.6597 70.3521 92.6597C69.8488 92.6597 69.4105 92.5826 69.0371 92.4284C68.6658 92.2741 68.3756 92.0459 68.1666 91.7435C67.9596 91.4391 67.8511 91.0627 67.8409 90.6142H69.1163C69.1305 90.8233 69.1903 90.9978 69.2959 91.1378C69.4034 91.2758 69.5465 91.3803 69.725 91.4513C69.9056 91.5203 70.1096 91.5548 70.3369 91.5548C70.5601 91.5548 70.7539 91.5223 70.9182 91.4574C71.0846 91.3925 71.2135 91.3022 71.3048 91.1865C71.3961 91.0708 71.4418 90.9379 71.4418 90.7877C71.4418 90.6477 71.4002 90.53 71.317 90.4347C71.2358 90.3393 71.1161 90.2581 70.9578 90.1912C70.8015 90.1242 70.6098 90.0633 70.3825 90.0085L69.7037 89.8381C69.1782 89.7102 68.7632 89.5103 68.4588 89.2384C68.1544 88.9665 68.0032 88.6002 68.0053 88.1396C68.0032 87.7622 68.1037 87.4324 68.3066 87.1504C68.5116 86.8683 68.7926 86.6481 69.1498 86.4899C69.5069 86.3316 69.9127 86.2524 70.3673 86.2524C70.83 86.2524 71.2338 86.3316 71.5787 86.4899C71.9257 86.6481 72.1956 86.8683 72.3884 87.1504C72.5812 87.4324 72.6806 87.7591 72.6867 88.1305H71.4235Z"/>
<path d="M74.7846 86.3377L76.2913 91.0739H76.3492L77.8589 86.3377H79.32L77.171 92.5714H75.4726L73.3206 86.3377H74.7846Z"/>
<path d="M83.8522 88.3527C83.8096 88.2045 83.7497 88.0737 83.6726 87.96C83.5955 87.8444 83.5012 87.747 83.3896 87.6678C83.28 87.5866 83.1542 87.5248 83.0121 87.4821C82.8721 87.4395 82.7169 87.4182 82.5464 87.4182C82.2278 87.4182 81.9478 87.4974 81.7063 87.6556C81.4669 87.8139 81.2802 88.0442 81.1463 88.3466C81.0123 88.6469 80.9454 89.0142 80.9454 89.4485C80.9454 89.8827 81.0113 90.252 81.1432 90.5564C81.2751 90.8608 81.4618 91.0931 81.7033 91.2534C81.9448 91.4117 82.2299 91.4909 82.5586 91.4909C82.8569 91.4909 83.1116 91.4381 83.3226 91.3326C83.5357 91.225 83.698 91.0739 83.8096 90.8791C83.9232 90.6843 83.9801 90.4539 83.9801 90.1881L84.2479 90.2277H82.6408V89.2354H85.2493V90.0207C85.2493 90.5686 85.1337 91.0394 84.9023 91.433C84.671 91.8247 84.3524 92.127 83.9466 92.3401C83.5407 92.5511 83.076 92.6567 82.5525 92.6567C81.9681 92.6567 81.4547 92.5278 81.0123 92.2701C80.57 92.0103 80.225 91.642 79.9774 91.1652C79.7319 90.6863 79.6091 90.1181 79.6091 89.4606C79.6091 88.9554 79.6822 88.5049 79.8283 88.1092C79.9764 87.7114 80.1834 87.3746 80.4492 87.0986C80.715 86.8226 81.0245 86.6126 81.3776 86.4685C81.7307 86.3245 82.1132 86.2524 82.5251 86.2524C82.8782 86.2524 83.2069 86.3042 83.5113 86.4077C83.8157 86.5091 84.0856 86.6532 84.321 86.8399C84.5584 87.0266 84.7522 87.2488 84.9023 87.5065C85.0525 87.7622 85.1489 88.0442 85.1915 88.3527H83.8522Z"/>
<path d="M118.822 62.392C118.203 61.5464 117.338 60.5589 116.39 59.6098C115.442 58.6607 114.454 57.7973 113.608 57.1777C112.169 56.1223 111.471 56 111.071 56H97.2321C96.0018 56 95 57.0009 95 58.2321V82.3393C95 83.5696 96.0018 84.5714 97.2321 84.5714H117.768C118.998 84.5714 120 83.5696 120 82.3393V64.9286C120 64.5286 119.878 63.8304 118.822 62.392ZM115.128 60.8723C115.984 61.7286 116.656 62.5018 117.153 63.1429H112.857V58.8473C113.498 59.3438 114.271 60.0161 115.128 60.8723ZM118.214 82.3393C118.214 82.5813 118.01 82.7857 117.768 82.7857H97.2321C96.9902 82.7857 96.7857 82.5813 96.7857 82.3393V58.2321C96.7857 57.9902 96.9902 57.7857 97.2321 57.7857C97.2321 57.7857 111.071 57.7857 111.071 57.7857V64.0357C111.071 64.5286 111.471 64.9286 111.964 64.9286H118.214V82.3393Z"/>
<path d="M118.822 62.392C118.203 61.5464 117.338 60.5589 116.39 59.6098C115.442 58.6607 114.454 57.7973 113.608 57.1777C112.169 56.1223 111.471 56 111.071 56H97.2321C96.0018 56 95 57.0009 95 58.2321V82.3393C95 83.5696 96.0018 84.5714 97.2321 84.5714H117.768C118.998 84.5714 120 83.5696 120 82.3393V64.9286C120 64.5286 119.878 63.8304 118.822 62.392ZM115.128 60.8723C115.984 61.7286 116.656 62.5018 117.153 63.1429H112.857V58.8473C113.498 59.3438 114.271 60.0161 115.128 60.8723ZM118.214 82.3393C118.214 82.5813 118.01 82.7857 117.768 82.7857H97.2321C96.9902 82.7857 96.7857 82.5813 96.7857 82.3393V58.2321C96.7857 57.9902 96.9902 57.7857 97.2321 57.7857C97.2321 57.7857 111.071 57.7857 111.071 57.7857V64.0357C111.071 64.5286 111.471 64.9286 111.964 64.9286H118.214V82.3393Z"/>
<path d="M101.423 70.1305C101.399 69.8849 101.295 69.6942 101.11 69.5582C100.925 69.4223 100.675 69.3543 100.358 69.3543C100.143 69.3543 99.9614 69.3847 99.8133 69.4456C99.6652 69.5045 99.5515 69.5866 99.4724 69.6922C99.3953 69.7977 99.3567 69.9174 99.3567 70.0513C99.3527 70.1629 99.376 70.2603 99.4267 70.3435C99.4795 70.4267 99.5515 70.4988 99.6429 70.5597C99.7342 70.6185 99.8397 70.6703 99.9594 70.7149C100.079 70.7575 100.207 70.794 100.343 70.8245L100.903 70.9584C101.175 71.0193 101.425 71.1004 101.652 71.2019C101.879 71.3034 102.076 71.4282 102.242 71.5763C102.409 71.7244 102.538 71.8989 102.629 72.0998C102.722 72.3007 102.77 72.531 102.772 72.7908C102.77 73.1723 102.672 73.503 102.48 73.7831C102.289 74.0611 102.013 74.2772 101.652 74.4314C101.293 74.5836 100.859 74.6597 100.352 74.6597C99.8488 74.6597 99.4105 74.5826 99.0371 74.4284C98.6658 74.2741 98.3756 74.0459 98.1666 73.7435C97.9596 73.4391 97.8511 73.0627 97.8409 72.6142H99.1163C99.1305 72.8233 99.1903 72.9978 99.2959 73.1378C99.4034 73.2758 99.5465 73.3803 99.725 73.4513C99.9056 73.5203 100.11 73.5548 100.337 73.5548C100.56 73.5548 100.754 73.5223 100.918 73.4574C101.085 73.3925 101.213 73.3022 101.305 73.1865C101.396 73.0708 101.442 72.9379 101.442 72.7877C101.442 72.6477 101.4 72.53 101.317 72.4347C101.236 72.3393 101.116 72.2581 100.958 72.1912C100.802 72.1242 100.61 72.0633 100.383 72.0085L99.7037 71.8381C99.1782 71.7102 98.7632 71.5103 98.4588 71.2384C98.1544 70.9665 98.0032 70.6002 98.0053 70.1396C98.0032 69.7622 98.1037 69.4324 98.3066 69.1504C98.5116 68.8683 98.7926 68.6481 99.1498 68.4899C99.5069 68.3316 99.9127 68.2524 100.367 68.2524C100.83 68.2524 101.234 68.3316 101.579 68.4899C101.926 68.6481 102.196 68.8683 102.388 69.1504C102.581 69.4324 102.681 69.7591 102.687 70.1305H101.423Z"/>
<path d="M104.785 68.3377L106.291 73.0739H106.349L107.859 68.3377H109.32L107.171 74.5714H105.473L103.321 68.3377H104.785Z"/>
<path d="M113.852 70.3527C113.81 70.2045 113.75 70.0737 113.673 69.96C113.596 69.8444 113.501 69.747 113.39 69.6678C113.28 69.5866 113.154 69.5248 113.012 69.4821C112.872 69.4395 112.717 69.4182 112.546 69.4182C112.228 69.4182 111.948 69.4974 111.706 69.6556C111.467 69.8139 111.28 70.0442 111.146 70.3466C111.012 70.6469 110.945 71.0142 110.945 71.4485C110.945 71.8827 111.011 72.252 111.143 72.5564C111.275 72.8608 111.462 73.0931 111.703 73.2534C111.945 73.4117 112.23 73.4909 112.559 73.4909C112.857 73.4909 113.112 73.4381 113.323 73.3326C113.536 73.225 113.698 73.0739 113.81 72.8791C113.923 72.6843 113.98 72.4539 113.98 72.1881L114.248 72.2277H112.641V71.2354H115.249V72.0207C115.249 72.5686 115.134 73.0394 114.902 73.433C114.671 73.8247 114.352 74.127 113.947 74.3401C113.541 74.5511 113.076 74.6567 112.553 74.6567C111.968 74.6567 111.455 74.5278 111.012 74.2701C110.57 74.0103 110.225 73.642 109.977 73.1652C109.732 72.6863 109.609 72.1181 109.609 71.4606C109.609 70.9554 109.682 70.5049 109.828 70.1092C109.976 69.7114 110.183 69.3746 110.449 69.0986C110.715 68.8226 111.025 68.6126 111.378 68.4685C111.731 68.3245 112.113 68.2524 112.525 68.2524C112.878 68.2524 113.207 68.3042 113.511 68.4077C113.816 68.5091 114.086 68.6532 114.321 68.8399C114.558 69.0266 114.752 69.2488 114.902 69.5065C115.053 69.7622 115.149 70.0442 115.192 70.3527H113.852Z"/>
<g clip-path="url(#clip0_302_299)">
<path d="M210.681 61.159C209.987 60.212 209.019 59.106 207.957 58.043C206.895 56.98 205.788 56.013 204.841 55.319C203.229 54.137 202.448 54 202 54H186.5C185.122 54 184 55.121 184 56.5V83.5C184 84.878 185.122 86 186.5 86H209.5C210.878 86 212 84.878 212 83.5V64C212 63.552 211.863 62.77 210.681 61.159ZM206.543 59.457C207.502 60.416 208.255 61.282 208.811 62H204V57.189C204.718 57.745 205.584 58.498 206.543 59.457ZM210 83.5C210 83.771 209.771 84 209.5 84H186.5C186.229 84 186 83.771 186 83.5V56.5C186 56.229 186.229 56 186.5 56C186.5 56 201.999 56 202 56V63C202 63.552 202.448 64 203 64H210V83.5Z"/>
<path d="M189.835 69.1818H191.051V73.2386C191.051 73.6136 190.967 73.9394 190.798 74.2159C190.632 74.4924 190.4 74.7055 190.102 74.8551C189.805 75.0047 189.459 75.0795 189.065 75.0795C188.715 75.0795 188.397 75.018 188.111 74.8949C187.827 74.7699 187.601 74.5805 187.435 74.3267C187.268 74.071 187.186 73.75 187.188 73.3636H188.412C188.416 73.517 188.447 73.6487 188.506 73.7585C188.566 73.8665 188.649 73.9498 188.753 74.0085C188.859 74.0653 188.984 74.0938 189.128 74.0938C189.279 74.0938 189.407 74.0616 189.511 73.9972C189.617 73.9309 189.698 73.8343 189.753 73.7074C189.808 73.5805 189.835 73.4242 189.835 73.2386V69.1818ZM195.224 70.8551C195.202 70.6259 195.104 70.4479 194.932 70.321C194.759 70.1941 194.526 70.1307 194.23 70.1307C194.029 70.1307 193.86 70.1591 193.722 70.2159C193.583 70.2708 193.477 70.3475 193.403 70.446C193.331 70.5445 193.295 70.6562 193.295 70.7812C193.292 70.8854 193.313 70.9763 193.361 71.054C193.41 71.1316 193.477 71.1989 193.562 71.2557C193.648 71.3106 193.746 71.3589 193.858 71.4006C193.97 71.4403 194.089 71.4744 194.216 71.5028L194.739 71.6278C194.992 71.6847 195.225 71.7604 195.438 71.8551C195.65 71.9498 195.833 72.0663 195.989 72.2045C196.144 72.3428 196.264 72.5057 196.349 72.6932C196.437 72.8807 196.481 73.0956 196.483 73.3381C196.481 73.6941 196.39 74.0028 196.21 74.2642C196.032 74.5237 195.775 74.7254 195.438 74.8693C195.102 75.0114 194.698 75.0824 194.224 75.0824C193.755 75.0824 193.346 75.0104 192.997 74.8665C192.651 74.7225 192.38 74.5095 192.185 74.2273C191.991 73.9432 191.89 73.5919 191.881 73.1733H193.071C193.084 73.3684 193.14 73.5312 193.239 73.6619C193.339 73.7907 193.473 73.8883 193.639 73.9545C193.808 74.0189 193.998 74.0511 194.21 74.0511C194.419 74.0511 194.599 74.0208 194.753 73.9602C194.908 73.8996 195.028 73.8153 195.114 73.7074C195.199 73.5994 195.241 73.4754 195.241 73.3352C195.241 73.2045 195.203 73.0947 195.125 73.0057C195.049 72.9167 194.938 72.8409 194.79 72.7784C194.644 72.7159 194.465 72.6591 194.253 72.608L193.619 72.4489C193.129 72.3295 192.741 72.143 192.457 71.8892C192.173 71.6354 192.032 71.2936 192.034 70.8636C192.032 70.5114 192.126 70.2036 192.315 69.9403C192.507 69.6771 192.769 69.4716 193.102 69.3239C193.436 69.1761 193.814 69.1023 194.239 69.1023C194.67 69.1023 195.047 69.1761 195.369 69.3239C195.693 69.4716 195.945 69.6771 196.125 69.9403C196.305 70.2036 196.398 70.5085 196.403 70.8551H195.224ZM202.657 72.0909C202.657 72.7254 202.537 73.2652 202.296 73.7102C202.058 74.1553 201.732 74.4953 201.319 74.7301C200.908 74.9631 200.446 75.0795 199.933 75.0795C199.415 75.0795 198.951 74.9621 198.54 74.7273C198.129 74.4924 197.805 74.1525 197.566 73.7074C197.327 73.2623 197.208 72.7235 197.208 72.0909C197.208 71.4564 197.327 70.9167 197.566 70.4716C197.805 70.0265 198.129 69.6875 198.54 69.4545C198.951 69.2197 199.415 69.1023 199.933 69.1023C200.446 69.1023 200.908 69.2197 201.319 69.4545C201.732 69.6875 202.058 70.0265 202.296 70.4716C202.537 70.9167 202.657 71.4564 202.657 72.0909ZM201.41 72.0909C201.41 71.6799 201.348 71.3333 201.225 71.0511C201.104 70.7689 200.933 70.5549 200.711 70.4091C200.489 70.2633 200.23 70.1903 199.933 70.1903C199.635 70.1903 199.376 70.2633 199.154 70.4091C198.933 70.5549 198.76 70.7689 198.637 71.0511C198.516 71.3333 198.455 71.6799 198.455 72.0909C198.455 72.5019 198.516 72.8485 198.637 73.1307C198.76 73.4129 198.933 73.6269 199.154 73.7727C199.376 73.9186 199.635 73.9915 199.933 73.9915C200.23 73.9915 200.489 73.9186 200.711 73.7727C200.933 73.6269 201.104 73.4129 201.225 73.1307C201.348 72.8485 201.41 72.5019 201.41 72.0909ZM208.435 69.1818V75H207.372L204.841 71.3381H204.798V75H203.568V69.1818H204.648L207.159 72.8409H207.21V69.1818H208.435Z"/>
</g>
<path d="M58.8223 96.392C58.2027 95.5464 57.3384 94.5589 56.3902 93.6098C55.442 92.6607 54.4536 91.7973 53.608 91.1777C52.1688 90.1223 51.4714 90 51.0714 90H37.2321C36.0018 90 35 91.0009 35 92.2321V116.339C35 117.57 36.0018 118.571 37.2321 118.571H57.7679C58.9982 118.571 60 117.57 60 116.339V98.9286C60 98.5286 59.8777 97.8304 58.8223 96.392ZM55.1277 94.8723C55.9839 95.7286 56.6563 96.5018 57.1527 97.1429H52.8571V92.8473C53.4982 93.3438 54.2714 94.0161 55.1277 94.8723ZM58.2143 116.339C58.2143 116.581 58.0098 116.786 57.7679 116.786H37.2321C36.9902 116.786 36.7857 116.581 36.7857 116.339V92.2321C36.7857 91.9902 36.9902 91.7857 37.2321 91.7857C37.2321 91.7857 51.0705 91.7857 51.0714 91.7857V98.0357C51.0714 98.5286 51.4714 98.9286 51.9643 98.9286H58.2143V116.339Z"/>
<path d="M58.8223 96.392C58.2027 95.5464 57.3384 94.5589 56.3902 93.6098C55.442 92.6607 54.4536 91.7973 53.608 91.1777C52.1688 90.1223 51.4714 90 51.0714 90H37.2321C36.0018 90 35 91.0009 35 92.2321V116.339C35 117.57 36.0018 118.571 37.2321 118.571H57.7679C58.9982 118.571 60 117.57 60 116.339V98.9286C60 98.5286 59.8777 97.8304 58.8223 96.392ZM55.1277 94.8723C55.9839 95.7286 56.6563 96.5018 57.1527 97.1429H52.8571V92.8473C53.4982 93.3438 54.2714 94.0161 55.1277 94.8723ZM58.2143 116.339C58.2143 116.581 58.0098 116.786 57.7679 116.786H37.2321C36.9902 116.786 36.7857 116.581 36.7857 116.339V92.2321C36.7857 91.9902 36.9902 91.7857 37.2321 91.7857C37.2321 91.7857 51.0705 91.7857 51.0714 91.7857V98.0357C51.0714 98.5286 51.4714 98.9286 51.9643 98.9286H58.2143V116.339Z"/>
<path d="M41.4235 104.13C41.3991 103.885 41.2946 103.694 41.11 103.558C40.9253 103.422 40.6747 103.354 40.3582 103.354C40.1431 103.354 39.9614 103.385 39.8133 103.446C39.6652 103.504 39.5515 103.587 39.4724 103.692C39.3953 103.798 39.3567 103.917 39.3567 104.051C39.3527 104.163 39.376 104.26 39.4267 104.344C39.4795 104.427 39.5515 104.499 39.6429 104.56C39.7342 104.619 39.8397 104.67 39.9594 104.715C40.0791 104.758 40.207 104.794 40.3429 104.824L40.903 104.958C41.1749 105.019 41.4245 105.1 41.6518 105.202C41.8791 105.303 42.0759 105.428 42.2423 105.576C42.4087 105.724 42.5375 105.899 42.6289 106.1C42.7222 106.301 42.7699 106.531 42.7719 106.791C42.7699 107.172 42.6725 107.503 42.4797 107.783C42.289 108.061 42.013 108.277 41.6518 108.431C41.2926 108.584 40.8594 108.66 40.3521 108.66C39.8488 108.66 39.4105 108.583 39.0371 108.428C38.6658 108.274 38.3756 108.046 38.1666 107.744C37.9596 107.439 37.8511 107.063 37.8409 106.614H39.1163C39.1305 106.823 39.1903 106.998 39.2959 107.138C39.4034 107.276 39.5465 107.38 39.725 107.451C39.9056 107.52 40.1096 107.555 40.3369 107.555C40.5601 107.555 40.7539 107.522 40.9182 107.457C41.0846 107.392 41.2135 107.302 41.3048 107.186C41.3961 107.071 41.4418 106.938 41.4418 106.788C41.4418 106.648 41.4002 106.53 41.317 106.435C41.2358 106.339 41.1161 106.258 40.9578 106.191C40.8015 106.124 40.6098 106.063 40.3825 106.009L39.7037 105.838C39.1782 105.71 38.7632 105.51 38.4588 105.238C38.1544 104.967 38.0032 104.6 38.0053 104.14C38.0032 103.762 38.1037 103.432 38.3066 103.15C38.5116 102.868 38.7926 102.648 39.1498 102.49C39.5069 102.332 39.9127 102.252 40.3673 102.252C40.83 102.252 41.2338 102.332 41.5787 102.49C41.9257 102.648 42.1956 102.868 42.3884 103.15C42.5812 103.432 42.6806 103.759 42.6867 104.13H41.4235Z"/>
<path d="M44.7846 102.338L46.2913 107.074H46.3492L47.8589 102.338H49.32L47.171 108.571H45.4726L43.3206 102.338H44.7846Z"/>
<path d="M53.8522 104.353C53.8096 104.205 53.7497 104.074 53.6726 103.96C53.5955 103.844 53.5012 103.747 53.3896 103.668C53.28 103.587 53.1542 103.525 53.0121 103.482C52.8721 103.44 52.7169 103.418 52.5464 103.418C52.2278 103.418 51.9478 103.497 51.7063 103.656C51.4669 103.814 51.2802 104.044 51.1463 104.347C51.0123 104.647 50.9454 105.014 50.9454 105.448C50.9454 105.883 51.0113 106.252 51.1432 106.556C51.2751 106.861 51.4618 107.093 51.7033 107.253C51.9448 107.412 52.2299 107.491 52.5586 107.491C52.8569 107.491 53.1116 107.438 53.3226 107.333C53.5357 107.225 53.698 107.074 53.8096 106.879C53.9232 106.684 53.9801 106.454 53.9801 106.188L54.2479 106.228H52.6408V105.235H55.2493V106.021C55.2493 106.569 55.1337 107.039 54.9023 107.433C54.671 107.825 54.3524 108.127 53.9466 108.34C53.5407 108.551 53.076 108.657 52.5525 108.657C51.9681 108.657 51.4547 108.528 51.0123 108.27C50.57 108.01 50.225 107.642 49.9774 107.165C49.7319 106.686 49.6091 106.118 49.6091 105.461C49.6091 104.955 49.6822 104.505 49.8283 104.109C49.9764 103.711 50.1834 103.375 50.4492 103.099C50.715 102.823 51.0245 102.613 51.3776 102.469C51.7307 102.324 52.1132 102.252 52.5251 102.252C52.8782 102.252 53.2069 102.304 53.5113 102.408C53.8157 102.509 54.0856 102.653 54.321 102.84C54.5584 103.027 54.7522 103.249 54.9023 103.506C55.0525 103.762 55.1489 104.044 55.1915 104.353H53.8522Z"/>
<path d="M161 71.6774L151.323 62V67.8065H141V75.5484H151.323V81.3548L161 71.6774Z"/>
<defs>
<clipPath id="clip0_302_299">
<rect width="32" height="32" fill="white" transform="translate(182 54)"/>
</clipPath>
</defs>
</svg>
