<svg viewbox="0 0 24 24" version="1.1" xmlns="http://www.w3.org/2000/svg" width="24" height="24"><path d="M14.507 9.405l-2.507 1.45-6.961-4.027 2.511-1.435zM18.961 6.828l-2.456 1.421-6.944-4.005 1.934-1.105c0.112-0.064 0.232-0.105 0.355-0.124 0.218-0.034 0.445 0.003 0.654 0.124zM11.526 22.961c0.141 0.076 0.303 0.119 0.474 0.119 0.173 0 0.336-0.044 0.478-0.121 0.356-0.058 0.701-0.18 1.017-0.36l7.001-4.001c0.618-0.357 1.060-0.897 1.299-1.514 0.133-0.342 0.202-0.707 0.205-1.084v-8c0-0.478-0.113-0.931-0.314-1.334-0.022-0.071-0.052-0.14-0.091-0.207-0.046-0.079-0.1-0.149-0.162-0.21-0.031-0.043-0.064-0.086-0.097-0.127-0.23-0.286-0.512-0.528-0.831-0.715l-7.009-4.005c-0.61-0.352-1.3-0.465-1.954-0.364-0.363 0.057-0.715 0.179-1.037 0.363l-3.199 1.828c-0.21 0.041-0.406 0.15-0.553 0.316l-3.249 1.857c-0.383 0.221-0.699 0.513-0.941 0.85-0.060 0.060-0.114 0.13-0.159 0.207-0.039 0.068-0.070 0.138-0.092 0.21-0.040 0.080-0.076 0.163-0.108 0.246-0.132 0.343-0.201 0.708-0.204 1.078v8.007c0.001 0.71 0.248 1.363 0.664 1.878 0.23 0.286 0.512 0.528 0.831 0.715l7.009 4.005c0.324 0.187 0.67 0.307 1.022 0.362zM11 12.587v7.991l-6.495-3.711c-0.111-0.065-0.207-0.148-0.285-0.245-0.139-0.172-0.22-0.386-0.22-0.622v-7.462zM13 20.578v-7.991l7-4.049v7.462c-0.001 0.121-0.025 0.246-0.070 0.362-0.080 0.206-0.225 0.384-0.426 0.5z" fill="#d946ef"></path></svg>