<svg width="43" height="13" viewBox="0 0 43 13" fill="none" xmlns="http://www.w3.org/2000/svg">
<path d="M0.183998 12V0.799971H1.528V10.928H6.744V12H0.183998Z" fill="black"/>
<path d="M12.6314 12.192C11.5327 12.192 10.5674 11.952 9.73537 11.472C8.91404 10.9813 8.26871 10.2986 7.79937 9.42397C7.34071 8.5493 7.11137 7.5413 7.11137 6.39997C7.11137 5.25864 7.34071 4.25597 7.79937 3.39197C8.26871 2.5173 8.91404 1.83464 9.73537 1.34397C10.5674 0.853305 11.5327 0.607971 12.6314 0.607971C13.7407 0.607971 14.706 0.853305 15.5274 1.34397C16.3594 1.83464 17.0047 2.5173 17.4634 3.39197C17.922 4.25597 18.1514 5.25864 18.1514 6.39997C18.1514 7.5413 17.922 8.5493 17.4634 9.42397C17.0047 10.2986 16.3594 10.9813 15.5274 11.472C14.706 11.952 13.7407 12.192 12.6314 12.192ZM12.6314 11.008C13.4527 11.008 14.1727 10.8266 14.7914 10.464C15.4207 10.0906 15.906 9.56264 16.2474 8.87997C16.5994 8.18664 16.7754 7.35997 16.7754 6.39997C16.7754 5.43997 16.5994 4.61864 16.2474 3.93597C15.906 3.2533 15.4207 2.73064 14.7914 2.36797C14.1727 1.99464 13.4527 1.80797 12.6314 1.80797C11.81 1.80797 11.0847 1.99464 10.4554 2.36797C9.83671 2.73064 9.35137 3.2533 8.99937 3.93597C8.65804 4.61864 8.48737 5.43997 8.48737 6.39997C8.48737 7.35997 8.65804 8.18664 8.99937 8.87997C9.35137 9.56264 9.83671 10.0906 10.4554 10.464C11.0847 10.8266 11.81 11.008 12.6314 11.008Z" fill="black"/>
<path d="M24.9062 12.192C23.8609 12.192 22.9436 11.952 22.1542 11.472C21.3649 10.9813 20.7516 10.304 20.3142 9.43997C19.8769 8.5653 19.6582 7.5573 19.6582 6.41597C19.6582 5.27464 19.8769 4.26664 20.3142 3.39197C20.7622 2.5173 21.3916 1.83464 22.2022 1.34397C23.0236 0.853305 23.9889 0.607971 25.0982 0.607971C26.3569 0.607971 27.4022 0.911971 28.2342 1.51997C29.0769 2.12797 29.6209 2.9653 29.8662 4.03197H28.3142C28.1649 3.35997 27.8076 2.82664 27.2422 2.43197C26.6876 2.0373 25.9729 1.83997 25.0982 1.83997C24.2769 1.83997 23.5622 2.02664 22.9542 2.39997C22.3462 2.76264 21.8716 3.2853 21.5302 3.96797C21.1996 4.65064 21.0342 5.46664 21.0342 6.41597C21.0342 7.3653 21.1996 8.1813 21.5302 8.86397C21.8609 9.54664 22.3196 10.0746 22.9062 10.448C23.4929 10.8106 24.1756 10.992 24.9542 10.992C26.1489 10.992 27.0502 10.6453 27.6582 9.95197C28.2662 9.24797 28.6129 8.28797 28.6982 7.07197H25.4662V6.01597H30.0742V12H28.8422L28.7302 10.16C28.3249 10.8106 27.8289 11.312 27.2422 11.664C26.6556 12.016 25.8769 12.192 24.9062 12.192Z" fill="black"/>
<path d="M37.2876 12.192C36.189 12.192 35.2236 11.952 34.3916 11.472C33.5703 10.9813 32.925 10.2986 32.4556 9.42397C31.997 8.5493 31.7676 7.5413 31.7676 6.39997C31.7676 5.25864 31.997 4.25597 32.4556 3.39197C32.925 2.5173 33.5703 1.83464 34.3916 1.34397C35.2236 0.853305 36.189 0.607971 37.2876 0.607971C38.397 0.607971 39.3623 0.853305 40.1836 1.34397C41.0156 1.83464 41.661 2.5173 42.1196 3.39197C42.5783 4.25597 42.8076 5.25864 42.8076 6.39997C42.8076 7.5413 42.5783 8.5493 42.1196 9.42397C41.661 10.2986 41.0156 10.9813 40.1836 11.472C39.3623 11.952 38.397 12.192 37.2876 12.192ZM37.2876 11.008C38.109 11.008 38.829 10.8266 39.4476 10.464C40.077 10.0906 40.5623 9.56264 40.9036 8.87997C41.2556 8.18664 41.4316 7.35997 41.4316 6.39997C41.4316 5.43997 41.2556 4.61864 40.9036 3.93597C40.5623 3.2533 40.077 2.73064 39.4476 2.36797C38.829 1.99464 38.109 1.80797 37.2876 1.80797C36.4663 1.80797 35.741 1.99464 35.1116 2.36797C34.493 2.73064 34.0076 3.2533 33.6556 3.93597C33.3143 4.61864 33.1436 5.43997 33.1436 6.39997C33.1436 7.35997 33.3143 8.18664 33.6556 8.87997C34.0076 9.56264 34.493 10.0906 35.1116 10.464C35.741 10.8266 36.4663 11.008 37.2876 11.008Z" fill="black"/>
</svg>
